<?xml version="1.0" standalone="no"?>
<!DOCTYPE svg PUBLIC "-//W3C//DTD SVG 20010904//EN"
 "http://www.w3.org/TR/2001/REC-SVG-20010904/DTD/svg10.dtd">
<svg version="1.0" xmlns="http://www.w3.org/2000/svg"
 width="300.000000pt" height="300.000000pt" viewBox="0 0 300.000000 300.000000"
 preserveAspectRatio="xMidYMid meet">
<metadata>
Created by potrace 1.10, written by Peter Selinger 2001-2011
</metadata>
<g transform="translate(0.000000,300.000000) scale(0.100000,-0.100000)"
fill="#000000" stroke="none">
<path d="M2183 2648 c-31 -15 -36 -37 -34 -165 1 -84 -2 -113 -11 -115 -7 -1
-92 -2 -188 -4 -257 -3 -321 -17 -469 -105 -127 -74 -283 -307 -406 -604 -81
-194 -167 -351 -186 -339 -5 3 -6 -1 -4 -8 7 -19 -60 -82 -76 -73 -8 5 -10 4
-5 -4 5 -7 -6 -17 -31 -28 -31 -14 -76 -17 -238 -19 -244 -3 -235 2 -236 -138
-2 -190 0 -205 33 -225 33 -20 381 -18 472 3 71 17 189 67 217 92 10 9 23 13
30 8 7 -4 10 -3 6 3 -8 12 27 46 36 36 4 -3 7 -1 7 6 0 7 19 32 42 57 23 25
59 71 80 102 21 31 43 56 48 55 5 -2 7 4 3 13 -3 9 -2 19 4 23 9 6 60 108 115
231 32 72 36 82 103 225 36 78 48 96 56 85 8 -12 9 -10 4 7 -5 17 5 37 40 83
26 33 51 58 56 54 5 -3 8 0 7 7 -2 6 21 25 51 41 l54 28 191 -2 191 -3 3 -125
c2 -113 5 -127 23 -142 48 -40 60 -32 301 210 185 185 228 233 228 255 0 22
-40 67 -214 240 -262 262 -256 258 -303 235z m269 -235 c126 -125 228 -235
228 -243 0 -8 -100 -115 -222 -237 -283 -284 -288 -285 -288 -65 l0 133 -212
-3 -213 -3 -53 -29 c-95 -53 -149 -137 -283 -438 -49 -112 -113 -243 -141
-293 -126 -222 -265 -343 -449 -389 -82 -20 -467 -24 -487 -4 -8 8 -12 57 -12
154 0 116 3 145 16 158 13 13 46 16 207 16 180 0 195 2 242 24 62 29 130 100
180 190 21 38 78 157 125 265 134 303 206 420 330 534 73 68 154 111 258 138
62 16 110 19 284 19 l208 0 0 134 c0 109 3 138 16 150 8 9 21 16 27 16 7 0
114 -102 239 -227z"/>
<path d="M418 2358 c-13 -3 -38 -6 -55 -7 -55 -2 -63 -27 -64 -186 0 -189 -16
-177 233 -179 l194 -1 60 -31 c32 -17 58 -36 56 -43 -1 -7 2 -10 7 -7 14 9 64
-61 58 -78 -4 -10 -1 -13 8 -10 7 3 16 -3 20 -15 3 -12 12 -27 18 -33 7 -7 21
-31 32 -52 11 -22 25 -41 32 -43 7 -3 27 29 48 75 64 139 133 267 143 265 28
-6 -22 90 -67 131 -11 10 -18 23 -14 29 3 6 1 7 -5 3 -6 -3 -17 2 -24 12 -17
23 -88 72 -153 104 -82 41 -159 59 -278 63 -62 2 -112 4 -112 5 0 5 -119 4
-137 -2z m452 -51 c91 -32 194 -101 256 -171 77 -85 79 -90 54 -126 -25 -35
-150 -292 -150 -309 0 -22 -18 -10 -30 20 -19 45 -87 149 -124 187 -17 19 -53
46 -81 60 -48 26 -58 27 -253 32 -165 4 -205 8 -212 20 -15 23 -13 293 3 309
9 9 65 12 237 9 215 -3 228 -5 300 -31z"/>
<path d="M1193 1965 c0 -8 4 -12 9 -9 5 3 6 10 3 15 -9 13 -12 11 -12 -6z"/>
<path d="M1443 1448 c-17 -42 -109 -228 -138 -278 -8 -14 -15 -33 -15 -44 0
-24 58 -102 114 -154 24 -22 41 -44 38 -47 -4 -4 -2 -6 3 -4 6 1 48 -16 95
-39 118 -58 201 -72 426 -72 l184 0 1 -62 c0 -35 0 -91 -1 -125 -2 -78 19
-105 79 -101 22 2 37 6 35 9 -2 4 2 12 10 18 11 9 15 9 20 -1 3 -7 4 -4 3 7
-1 13 3 19 13 17 8 -2 12 -1 8 3 -8 9 0 18 81 98 35 34 67 61 73 59 5 -1 7 1
4 6 -7 12 58 74 68 65 4 -5 6 -3 4 2 -5 16 73 95 86 88 6 -3 8 -3 4 2 -11 11
12 36 25 28 5 -3 7 -1 3 5 -3 6 -1 14 4 17 20 13 31 55 19 77 -6 11 -74 83
-150 160 -76 77 -139 142 -139 145 0 7 -33 38 -39 36 -3 0 -5 3 -4 8 2 5 -1 9
-7 9 -5 0 -24 15 -42 33 -71 70 -104 81 -138 47 -18 -18 -20 -33 -20 -151 l0
-131 -192 4 c-180 3 -197 5 -245 28 -28 13 -50 27 -47 31 2 4 -5 9 -16 12 -11
3 -26 19 -33 36 -7 17 -17 28 -22 24 -4 -5 -5 0 -2 10 4 10 3 16 -2 12 -10 -5
-39 38 -75 109 -29 57 -51 58 -73 4z m75 -37 c48 -98 109 -171 173 -206 l54
-30 213 -5 212 -5 0 135 c0 142 5 160 44 160 27 0 466 -437 466 -464 0 -22
-421 -452 -452 -462 -9 -3 -26 0 -38 6 -19 10 -20 20 -20 148 l0 137 -203 1
c-235 1 -305 13 -422 70 -60 30 -94 57 -161 126 -46 48 -84 92 -84 97 0 5 17
40 39 78 21 37 60 116 87 176 26 59 51 107 54 106 3 0 20 -31 38 -68z"/>
<path d="M2192 730 c0 -19 2 -27 5 -17 2 9 2 25 0 35 -3 9 -5 1 -5 -18z"/>
<path d="M1551 1414 c0 -11 3 -14 6 -6 3 7 2 16 -1 19 -3 4 -6 -2 -5 -13z"/>
</g>
</svg>
